<?xml version="1.0" standalone="no"?>
<!DOCTYPE svg PUBLIC "-//W3C//DTD SVG 20010904//EN"
 "http://www.w3.org/TR/2001/REC-SVG-20010904/DTD/svg10.dtd">
<svg version="1.0" xmlns="http://www.w3.org/2000/svg"
 width="270.000000pt" height="270.000000pt" viewBox="0 0 270.000000 270.000000"
 preserveAspectRatio="xMidYMid meet">
<metadata>
Created by potrace 1.11, written by Peter Selinger 2001-2013
</metadata>
<g transform="translate(0.000000,270.000000) scale(0.100000,-0.100000)"
fill="#000000" stroke="none">
<path d="M1135 2684 c-564 -95 -998 -517 -1112 -1081 -24 -122 -24 -385 0
-502 41 -193 100 -338 202 -492 269 -411 761 -649 1242 -601 325 32 607 165
833 392 341 342 473 820 356 1284 -134 524 -570 920 -1106 1001 -116 18 -307
18 -415 -1z m403 -686 c117 -35 200 -85 288 -173 131 -130 191 -264 201 -450
7 -122 -16 -229 -74 -345 -53 -106 -188 -240 -293 -292 -225 -109 -463 -99
-674 29 -79 48 -172 143 -216 221 -19 34 -40 62 -47 62 -6 0 -32 -9 -58 -20
-26 -11 -50 -20 -54 -20 -9 0 77 371 89 383 7 8 340 -192 340 -205 0 -4 -10
-10 -22 -14 -13 -4 -42 -15 -66 -25 l-43 -19 15 -29 c24 -45 111 -136 164
-169 156 -100 368 -99 526 2 133 85 226 254 226 411 0 182 -115 361 -285 442
-71 33 -87 37 -184 41 -90 3 -116 1 -170 -17 -124 -42 -235 -138 -289 -248
-15 -29 -29 -53 -33 -53 -4 0 -43 17 -88 38 l-81 37 28 60 c96 199 287 338
517 376 73 11 207 1 283 -23z"/>
</g>
</svg>
